#!OML:ASF F:\VICON\USERDATA\INSTALL\rory3\rory3.ASF
:FULLY-SPECIFIED
:DEGREES
3101
root 15.2622 17.8235 -9.71375 718.13 -34.1307 723.579
lowerback 10.1996 -0.0291668 -1.48297
upperback 0.686537 -0.190767 0.54093
thorax -4.9997 -0.0601512 1.42763
lowerneck -18.225 -2.18087 -9.43094
upperneck 32.4217 -1.75483 4.33714
head 14.312 -1.42086 3.07664
rclavicle -1.23495e-013 2.34566e-014
rhumerus -34.4723 -0.892229 -86.268
rradius 40.3141
rwrist 1.56239
rhand -15.323 9.13035
rfingers 7.12502
rthumb 10.8532 -20.5692
lclavicle -1.23495e-013 2.34566e-014
lhumerus -33.6833 7.00546 78.7101
lradius 30.3112
lwrist -5.49723
lhand -17.212 27.9549
lfingers 7.12502
lthumb 9.03082 57.7416
rfemur -7.41204 7.92494 19.9692
rtibia 33.8804
rfoot -21.361 -0.735876
rtoes 1.44316
lfemur -11.0534 -0.302827 -24.0814
ltibia 26.7741
lfoot -11.5629 -4.20488
ltoes -3.16984
3102
root 15.2391 17.8186 -9.70851 718.097 -33.3717 723.657
lowerback 10.1676 -0.0402449 -1.57025
upperback 0.708154 -0.215641 0.524127
thorax -4.95804 -0.0711673 1.46256
lowerneck -18.1563 -2.13792 -9.61021
upperneck 32.4007 -1.65297 4.4044
head 14.2814 -1.38791 3.15295
rclavicle 1.06847e-014 2.78299e-015
rhumerus -34.3315 -0.548311 -86.4448
rradius 40.3629
rwrist 1.78761
rhand -15.4311 9.00681
rfingers 7.12502
rthumb 10.7489 -20.6982
lclavicle 1.06847e-014 2.78299e-015
lhumerus -33.635 6.88678 78.7405
lradius 30.4259
lwrist -5.11485
lhand -16.7704 28.6598
lfingers 7.12502
lthumb 9.45692 58.4276
rfemur -7.23016 7.65114 19.9048
rtibia 33.7648
rfoot -21.1101 -2.12736
rtoes -2.0347
lfemur -11.0158 -0.503846 -24.1321
ltibia 26.7604
lfoot -11.6742 -4.77629
ltoes -3.43994
3103
root 15.2162 17.8199 -9.70255 718.045 -32.5939 723.763
lowerback 10.0814 -0.0284149 -1.5998
upperback 0.798353 -0.206626 0.42799
thorax -4.81601 -0.0691594 1.37676
lowerneck -18.274 -2.15932 -9.6071
upperneck 32.4788 -1.65978 4.38595
head 14.3437 -1.39202 3.14686
rclavicle -9.93426e-014 1.90833e-014
rhumerus -34.2307 -0.198686 -86.7225
rradius 40.6007
rwrist 2.12558
rhand -15.7852 8.42755
rfingers 7.12502
rthumb 10.4074 -21.2949
lclavicle -9.93426e-014 1.90833e-014
lhumerus -33.3711 6.5564 78.7747
lradius 30.5631
lwrist -4.85791
lhand -16.3747 29.4868
lfingers 7.12502
lthumb 9.83869 59.2369
rfemur -6.98231 7.27618 19.8338
rtibia 33.6849
rfoot -21.1448 -2.77168
rtoes -3.09174
lfemur -10.9334 -0.95049 -24.2119
ltibia 26.6498
lfoot -11.6483 -5.13876
ltoes -3.90526
3104
root 15.1943 17.8233 -9.69861 718.011 -31.8378 723.813
lowerback 10.0112 -0.0060831 -1.55149
upperback 0.884465 -0.175893 0.31332
thorax -4.68829 -0.0579149 1.22503
lowerneck -18.4023 -2.18018 -9.51301
upperneck 32.6323 -1.68396 4.32426
head 14.4423 -1.40073 3.10604
rclavicle -6.65432e-014 1.35174e-014
rhumerus -34.1767 0.121599 -87.074
rradius 40.9301
rwrist 2.33031
rhand -16.2983 7.5333
rfingers 7.12502
rthumb 9.91239 -22.2133
lclavicle -6.65432e-014 1.35174e-014
lhumerus -33.1548 6.0511 78.8476
lradius 30.6933
lwrist -4.60857
lhand -16.1433 29.9571
lfingers 7.12502
lthumb 10.0619 59.6965
rfemur -6.70172 6.69943 19.8354
rtibia 33.5531
rfoot -21.0622 -2.12252
rtoes -1.22084
lfemur -10.869 -1.47571 -24.2311
ltibia 26.5364
lfoot -11.6191 -5.39265
ltoes -3.89923
3105
root 15.1727 17.8255 -9.69456 718.009 -31.0998 723.888
lowerback 9.99186 0.00679349 -1.59486
upperback 0.809497 -0.164269 0.287902
thorax -4.75617 -0.0501077 1.22149
lowerneck -18.1522 -2.16309 -9.56682
upperneck 32.7188 -1.62283 4.19905
head 14.4209 -1.4023 3.07581
rclavicle -3.20043e-014 -1.23246e-014
rhumerus -34.3881 0.518677 -87.2282
rradius 41.2399
rwrist 2.14007
rhand -16.3875 7.00862
rfingers 7.12502
rthumb 9.82631 -22.7421
lclavicle -3.20043e-014 -1.23246e-014
lhumerus -33.3187 5.67018 79.0274
lradius 30.7666
lwrist -4.59881
lhand -16.4002 29.176
lfingers 7.12502
lthumb 9.81406 58.9273
rfemur -6.44818 5.96413 19.8093
rtibia 33.3388
rfoot -20.9857 -1.51849
rtoes 0.349621
lfemur -10.8702 -1.8261 -24.2647
ltibia 26.4643
lfoot -11.6475 -5.85326
ltoes -3.69309
3106
root 15.1538 17.8239 -9.69329 718.077 -30.326 723.853
lowerback 10.0832 0.000808754 -1.56272
upperback 0.705848 -0.168028 0.326748
thorax -4.91555 -0.0497847 1.24512
lowerneck -17.9181 -2.18208 -9.77255
upperneck 32.7352 -1.59287 4.17088
head 14.3776 -1.42008 3.105
rclavicle -5.86415e-014 -8.34896e-015
rhumerus -34.5349 0.747653 -87.2068
rradius 41.3607
rwrist 2.03266
rhand -16.2673 7.16658
rfingers 7.12502
rthumb 9.9423 -22.5786
lclavicle -5.86415e-014 -8.34896e-015
lhumerus -33.4444 5.54877 79.2168
lradius 30.7457
lwrist -4.65727
lhand -17.4464 28.0562
lfingers 7.12502
lthumb 8.80455 57.8526
rfemur -6.20378 5.09051 19.8924
rtibia 33.0299
rfoot -21.1882 -2.06162
rtoes -0.812682
lfemur -10.9416 -1.89023 -24.182
ltibia 26.4624
lfoot -11.6649 -6.60566
ltoes -3.4307
